<svg xmlns="http://www.w3.org/2000/svg" width="1600" height="900" viewBox="0 0 1600 900">
<title>V3 replicated matmul: Operand multicast on each 13×10 worker grid</title>
<defs>
<marker id="arrow" viewBox="0 0 10 10" refX="9" refY="5" markerWidth="5" markerHeight="5" orient="auto-start-reverse"><path d="M0 0 L10 5 L0 10z" fill="context-stroke"/></marker>
<style>text{font-family:Inter,system-ui,sans-serif;fill:#0f172a}.title{font-size:26px;font-weight:700}.section{font-size:20px;font-weight:650}.label{font-size:15px;font-weight:600}.small{font-size:14px;fill:#334155}.tiny{font-size:12px;fill:#475569}.panel{fill:white;stroke:#64748b;stroke-width:1.5}.device{fill:#eef2ff;stroke:#6366f1;stroke-width:1.5}.pipe{fill:none;stroke-width:2.5;marker-start:url(#arrow);marker-end:url(#arrow)}</style>
</defs><rect width="1600" height="900" fill="#f8fafc"/>
<text x="40" y="42" class="title">V3 replicated matmul: Operand multicast on each 13×10 worker grid</text>
<text x="40" y="72" class="small">This grid repeats on all four devices after activation gathering. Transpose maps 13 M workers to x and 10 N workers to y.</text>
<rect x="40" y="105" width="740" height="620" rx="10" class="panel"/>
<text x="65" y="142" class="section">Activation pipes: Logical rows</text>
<text x="65" y="173" class="small">13 multicasts: (x, 0) → (x, 1…9)</text>
<text x="65" y="200" class="small">Each source reads its A block from gathered DRAM.</text>
<text x="120" y="246" class="tiny" text-anchor="middle">0</text><text x="166" y="246" class="tiny" text-anchor="middle">1</text><text x="212" y="246" class="tiny" text-anchor="middle">2</text><text x="258" y="246" class="tiny" text-anchor="middle">3</text><text x="304" y="246" class="tiny" text-anchor="middle">4</text><text x="350" y="246" class="tiny" text-anchor="middle">5</text><text x="396" y="246" class="tiny" text-anchor="middle">6</text><text x="442" y="246" class="tiny" text-anchor="middle">7</text><text x="488" y="246" class="tiny" text-anchor="middle">8</text><text x="534" y="246" class="tiny" text-anchor="middle">9</text><text x="580" y="246" class="tiny" text-anchor="middle">10</text><text x="626" y="246" class="tiny" text-anchor="middle">11</text><text x="672" y="246" class="tiny" text-anchor="middle">12</text><text x="93" y="274" class="tiny" text-anchor="middle">0</text><text x="93" y="312" class="tiny" text-anchor="middle">1</text><text x="93" y="350" class="tiny" text-anchor="middle">2</text><text x="93" y="388" class="tiny" text-anchor="middle">3</text><text x="93" y="426" class="tiny" text-anchor="middle">4</text><text x="93" y="464" class="tiny" text-anchor="middle">5</text><text x="93" y="502" class="tiny" text-anchor="middle">6</text><text x="93" y="540" class="tiny" text-anchor="middle">7</text><text x="93" y="578" class="tiny" text-anchor="middle">8</text><text x="93" y="616" class="tiny" text-anchor="middle">9</text><path d="M120 270 L120 612" fill="none" stroke="#94a3b8" stroke-width="1.5"/><path d="M166 270 L166 612" fill="none" stroke="#94a3b8" stroke-width="1.5"/><path d="M212 270 L212 612" fill="none" stroke="#2563eb" stroke-width="4"/><path d="M258 270 L258 612" fill="none" stroke="#94a3b8" stroke-width="1.5"/><path d="M304 270 L304 612" fill="none" stroke="#94a3b8" stroke-width="1.5"/><path d="M350 270 L350 612" fill="none" stroke="#94a3b8" stroke-width="1.5"/><path d="M396 270 L396 612" fill="none" stroke="#94a3b8" stroke-width="1.5"/><path d="M442 270 L442 612" fill="none" stroke="#94a3b8" stroke-width="1.5"/><path d="M488 270 L488 612" fill="none" stroke="#94a3b8" stroke-width="1.5"/><path d="M534 270 L534 612" fill="none" stroke="#94a3b8" stroke-width="1.5"/><path d="M580 270 L580 612" fill="none" stroke="#94a3b8" stroke-width="1.5"/><path d="M626 270 L626 612" fill="none" stroke="#94a3b8" stroke-width="1.5"/><path d="M672 270 L672 612" fill="none" stroke="#94a3b8" stroke-width="1.5"/><circle cx="120" cy="270" r="9" fill="#2563eb" stroke="#64748b" stroke-width="1.5"/><circle cx="166" cy="270" r="9" fill="#2563eb" stroke="#64748b" stroke-width="1.5"/><circle cx="212" cy="270" r="9" fill="#2563eb" stroke="#2563eb" stroke-width="1.5"/><circle cx="258" cy="270" r="9" fill="#2563eb" stroke="#64748b" stroke-width="1.5"/><circle cx="304" cy="270" r="9" fill="#2563eb" stroke="#64748b" stroke-width="1.5"/><circle cx="350" cy="270" r="9" fill="#2563eb" stroke="#64748b" stroke-width="1.5"/><circle cx="396" cy="270" r="9" fill="#2563eb" stroke="#64748b" stroke-width="1.5"/><circle cx="442" cy="270" r="9" fill="#2563eb" stroke="#64748b" stroke-width="1.5"/><circle cx="488" cy="270" r="9" fill="#2563eb" stroke="#64748b" stroke-width="1.5"/><circle cx="534" cy="270" r="9" fill="#2563eb" stroke="#64748b" stroke-width="1.5"/><circle cx="580" cy="270" r="9" fill="#2563eb" stroke="#64748b" stroke-width="1.5"/><circle cx="626" cy="270" r="9" fill="#2563eb" stroke="#64748b" stroke-width="1.5"/><circle cx="672" cy="270" r="9" fill="#2563eb" stroke="#64748b" stroke-width="1.5"/><circle cx="120" cy="308" r="6" fill="#fff" stroke="#64748b" stroke-width="1.5"/><circle cx="166" cy="308" r="6" fill="#fff" stroke="#64748b" stroke-width="1.5"/><circle cx="212" cy="308" r="6" fill="#dcfce7" stroke="#2563eb" stroke-width="1.5"/><circle cx="258" cy="308" r="6" fill="#fff" stroke="#64748b" stroke-width="1.5"/><circle cx="304" cy="308" r="6" fill="#fff" stroke="#64748b" stroke-width="1.5"/><circle cx="350" cy="308" r="6" fill="#fff" stroke="#64748b" stroke-width="1.5"/><circle cx="396" cy="308" r="6" fill="#fff" stroke="#64748b" stroke-width="1.5"/><circle cx="442" cy="308" r="6" fill="#fff" stroke="#64748b" stroke-width="1.5"/><circle cx="488" cy="308" r="6" fill="#fff" stroke="#64748b" stroke-width="1.5"/><circle cx="534" cy="308" r="6" fill="#fff" stroke="#64748b" stroke-width="1.5"/><circle cx="580" cy="308" r="6" fill="#fff" stroke="#64748b" stroke-width="1.5"/><circle cx="626" cy="308" r="6" fill="#fff" stroke="#64748b" stroke-width="1.5"/><circle cx="672" cy="308" r="6" fill="#fff" stroke="#64748b" stroke-width="1.5"/><circle cx="120" cy="346" r="6" fill="#fff" stroke="#64748b" stroke-width="1.5"/><circle cx="166" cy="346" r="6" fill="#fff" stroke="#64748b" stroke-width="1.5"/><circle cx="212" cy="346" r="6" fill="#dcfce7" stroke="#2563eb" stroke-width="1.5"/><circle cx="258" cy="346" r="6" fill="#fff" stroke="#64748b" stroke-width="1.5"/><circle cx="304" cy="346" r="6" fill="#fff" stroke="#64748b" stroke-width="1.5"/><circle cx="350" cy="346" r="6" fill="#fff" stroke="#64748b" stroke-width="1.5"/><circle cx="396" cy="346" r="6" fill="#fff" stroke="#64748b" stroke-width="1.5"/><circle cx="442" cy="346" r="6" fill="#fff" stroke="#64748b" stroke-width="1.5"/><circle cx="488" cy="346" r="6" fill="#fff" stroke="#64748b" stroke-width="1.5"/><circle cx="534" cy="346" r="6" fill="#fff" stroke="#64748b" stroke-width="1.5"/><circle cx="580" cy="346" r="6" fill="#fff" stroke="#64748b" stroke-width="1.5"/><circle cx="626" cy="346" r="6" fill="#fff" stroke="#64748b" stroke-width="1.5"/><circle cx="672" cy="346" r="6" fill="#fff" stroke="#64748b" stroke-width="1.5"/><circle cx="120" cy="384" r="6" fill="#fff" stroke="#64748b" stroke-width="1.5"/><circle cx="166" cy="384" r="6" fill="#fff" stroke="#64748b" stroke-width="1.5"/><circle cx="212" cy="384" r="6" fill="#dcfce7" stroke="#2563eb" stroke-width="1.5"/><circle cx="258" cy="384" r="6" fill="#fff" stroke="#64748b" stroke-width="1.5"/><circle cx="304" cy="384" r="6" fill="#fff" stroke="#64748b" stroke-width="1.5"/><circle cx="350" cy="384" r="6" fill="#fff" stroke="#64748b" stroke-width="1.5"/><circle cx="396" cy="384" r="6" fill="#fff" stroke="#64748b" stroke-width="1.5"/><circle cx="442" cy="384" r="6" fill="#fff" stroke="#64748b" stroke-width="1.5"/><circle cx="488" cy="384" r="6" fill="#fff" stroke="#64748b" stroke-width="1.5"/><circle cx="534" cy="384" r="6" fill="#fff" stroke="#64748b" stroke-width="1.5"/><circle cx="580" cy="384" r="6" fill="#fff" stroke="#64748b" stroke-width="1.5"/><circle cx="626" cy="384" r="6" fill="#fff" stroke="#64748b" stroke-width="1.5"/><circle cx="672" cy="384" r="6" fill="#fff" stroke="#64748b" stroke-width="1.5"/><circle cx="120" cy="422" r="6" fill="#fff" stroke="#64748b" stroke-width="1.5"/><circle cx="166" cy="422" r="6" fill="#fff" stroke="#64748b" stroke-width="1.5"/><circle cx="212" cy="422" r="6" fill="#dcfce7" stroke="#2563eb" stroke-width="1.5"/><circle cx="258" cy="422" r="6" fill="#fff" stroke="#64748b" stroke-width="1.5"/><circle cx="304" cy="422" r="6" fill="#fff" stroke="#64748b" stroke-width="1.5"/><circle cx="350" cy="422" r="6" fill="#fff" stroke="#64748b" stroke-width="1.5"/><circle cx="396" cy="422" r="6" fill="#fff" stroke="#64748b" stroke-width="1.5"/><circle cx="442" cy="422" r="6" fill="#fff" stroke="#64748b" stroke-width="1.5"/><circle cx="488" cy="422" r="6" fill="#fff" stroke="#64748b" stroke-width="1.5"/><circle cx="534" cy="422" r="6" fill="#fff" stroke="#64748b" stroke-width="1.5"/><circle cx="580" cy="422" r="6" fill="#fff" stroke="#64748b" stroke-width="1.5"/><circle cx="626" cy="422" r="6" fill="#fff" stroke="#64748b" stroke-width="1.5"/><circle cx="672" cy="422" r="6" fill="#fff" stroke="#64748b" stroke-width="1.5"/><circle cx="120" cy="460" r="6" fill="#fff" stroke="#64748b" stroke-width="1.5"/><circle cx="166" cy="460" r="6" fill="#fff" stroke="#64748b" stroke-width="1.5"/><circle cx="212" cy="460" r="6" fill="#dcfce7" stroke="#2563eb" stroke-width="1.5"/><circle cx="258" cy="460" r="6" fill="#fff" stroke="#64748b" stroke-width="1.5"/><circle cx="304" cy="460" r="6" fill="#fff" stroke="#64748b" stroke-width="1.5"/><circle cx="350" cy="460" r="6" fill="#fff" stroke="#64748b" stroke-width="1.5"/><circle cx="396" cy="460" r="6" fill="#fff" stroke="#64748b" stroke-width="1.5"/><circle cx="442" cy="460" r="6" fill="#fff" stroke="#64748b" stroke-width="1.5"/><circle cx="488" cy="460" r="6" fill="#fff" stroke="#64748b" stroke-width="1.5"/><circle cx="534" cy="460" r="6" fill="#fff" stroke="#64748b" stroke-width="1.5"/><circle cx="580" cy="460" r="6" fill="#fff" stroke="#64748b" stroke-width="1.5"/><circle cx="626" cy="460" r="6" fill="#fff" stroke="#64748b" stroke-width="1.5"/><circle cx="672" cy="460" r="6" fill="#fff" stroke="#64748b" stroke-width="1.5"/><circle cx="120" cy="498" r="6" fill="#fff" stroke="#64748b" stroke-width="1.5"/><circle cx="166" cy="498" r="6" fill="#fff" stroke="#64748b" stroke-width="1.5"/><circle cx="212" cy="498" r="6" fill="#dcfce7" stroke="#2563eb" stroke-width="1.5"/><circle cx="258" cy="498" r="6" fill="#fff" stroke="#64748b" stroke-width="1.5"/><circle cx="304" cy="498" r="6" fill="#fff" stroke="#64748b" stroke-width="1.5"/><circle cx="350" cy="498" r="6" fill="#fff" stroke="#64748b" stroke-width="1.5"/><circle cx="396" cy="498" r="6" fill="#fff" stroke="#64748b" stroke-width="1.5"/><circle cx="442" cy="498" r="6" fill="#fff" stroke="#64748b" stroke-width="1.5"/><circle cx="488" cy="498" r="6" fill="#fff" stroke="#64748b" stroke-width="1.5"/><circle cx="534" cy="498" r="6" fill="#fff" stroke="#64748b" stroke-width="1.5"/><circle cx="580" cy="498" r="6" fill="#fff" stroke="#64748b" stroke-width="1.5"/><circle cx="626" cy="498" r="6" fill="#fff" stroke="#64748b" stroke-width="1.5"/><circle cx="672" cy="498" r="6" fill="#fff" stroke="#64748b" stroke-width="1.5"/><circle cx="120" cy="536" r="6" fill="#fff" stroke="#64748b" stroke-width="1.5"/><circle cx="166" cy="536" r="6" fill="#fff" stroke="#64748b" stroke-width="1.5"/><circle cx="212" cy="536" r="6" fill="#dcfce7" stroke="#2563eb" stroke-width="1.5"/><circle cx="258" cy="536" r="6" fill="#fff" stroke="#64748b" stroke-width="1.5"/><circle cx="304" cy="536" r="6" fill="#fff" stroke="#64748b" stroke-width="1.5"/><circle cx="350" cy="536" r="6" fill="#fff" stroke="#64748b" stroke-width="1.5"/><circle cx="396" cy="536" r="6" fill="#fff" stroke="#64748b" stroke-width="1.5"/><circle cx="442" cy="536" r="6" fill="#fff" stroke="#64748b" stroke-width="1.5"/><circle cx="488" cy="536" r="6" fill="#fff" stroke="#64748b" stroke-width="1.5"/><circle cx="534" cy="536" r="6" fill="#fff" stroke="#64748b" stroke-width="1.5"/><circle cx="580" cy="536" r="6" fill="#fff" stroke="#64748b" stroke-width="1.5"/><circle cx="626" cy="536" r="6" fill="#fff" stroke="#64748b" stroke-width="1.5"/><circle cx="672" cy="536" r="6" fill="#fff" stroke="#64748b" stroke-width="1.5"/><circle cx="120" cy="574" r="6" fill="#fff" stroke="#64748b" stroke-width="1.5"/><circle cx="166" cy="574" r="6" fill="#fff" stroke="#64748b" stroke-width="1.5"/><circle cx="212" cy="574" r="6" fill="#dcfce7" stroke="#2563eb" stroke-width="1.5"/><circle cx="258" cy="574" r="6" fill="#fff" stroke="#64748b" stroke-width="1.5"/><circle cx="304" cy="574" r="6" fill="#fff" stroke="#64748b" stroke-width="1.5"/><circle cx="350" cy="574" r="6" fill="#fff" stroke="#64748b" stroke-width="1.5"/><circle cx="396" cy="574" r="6" fill="#fff" stroke="#64748b" stroke-width="1.5"/><circle cx="442" cy="574" r="6" fill="#fff" stroke="#64748b" stroke-width="1.5"/><circle cx="488" cy="574" r="6" fill="#fff" stroke="#64748b" stroke-width="1.5"/><circle cx="534" cy="574" r="6" fill="#fff" stroke="#64748b" stroke-width="1.5"/><circle cx="580" cy="574" r="6" fill="#fff" stroke="#64748b" stroke-width="1.5"/><circle cx="626" cy="574" r="6" fill="#fff" stroke="#64748b" stroke-width="1.5"/><circle cx="672" cy="574" r="6" fill="#fff" stroke="#64748b" stroke-width="1.5"/><circle cx="120" cy="612" r="6" fill="#fff" stroke="#64748b" stroke-width="1.5"/><circle cx="166" cy="612" r="6" fill="#fff" stroke="#64748b" stroke-width="1.5"/><circle cx="212" cy="612" r="6" fill="#dcfce7" stroke="#2563eb" stroke-width="1.5"/><circle cx="258" cy="612" r="6" fill="#fff" stroke="#64748b" stroke-width="1.5"/><circle cx="304" cy="612" r="6" fill="#fff" stroke="#64748b" stroke-width="1.5"/><circle cx="350" cy="612" r="6" fill="#fff" stroke="#64748b" stroke-width="1.5"/><circle cx="396" cy="612" r="6" fill="#fff" stroke="#64748b" stroke-width="1.5"/><circle cx="442" cy="612" r="6" fill="#fff" stroke="#64748b" stroke-width="1.5"/><circle cx="488" cy="612" r="6" fill="#fff" stroke="#64748b" stroke-width="1.5"/><circle cx="534" cy="612" r="6" fill="#fff" stroke="#64748b" stroke-width="1.5"/><circle cx="580" cy="612" r="6" fill="#fff" stroke="#64748b" stroke-width="1.5"/><circle cx="626" cy="612" r="6" fill="#fff" stroke="#64748b" stroke-width="1.5"/><circle cx="672" cy="612" r="6" fill="#fff" stroke="#64748b" stroke-width="1.5"/><text x="65" y="655" class="label">Highlighted pipe: (2,0) sends to nine receivers.</text>
<text x="65" y="681" class="small">One hardware NoC multicast per operand block, not sequential forwarding.</text>
<text x="65" y="706" class="tiny">x: M-worker coordinate (0…12); y: N-worker coordinate (0…9)</text><rect x="820" y="105" width="740" height="620" rx="10" class="panel"/>
<text x="845" y="142" class="section">Weight pipes: Logical columns</text>
<text x="845" y="173" class="small">10 multicasts: (0, y) → (1…12, y)</text>
<text x="845" y="200" class="small">Each source reads its B block from replicated DRAM.</text>
<text x="900" y="246" class="tiny" text-anchor="middle">0</text><text x="946" y="246" class="tiny" text-anchor="middle">1</text><text x="992" y="246" class="tiny" text-anchor="middle">2</text><text x="1038" y="246" class="tiny" text-anchor="middle">3</text><text x="1084" y="246" class="tiny" text-anchor="middle">4</text><text x="1130" y="246" class="tiny" text-anchor="middle">5</text><text x="1176" y="246" class="tiny" text-anchor="middle">6</text><text x="1222" y="246" class="tiny" text-anchor="middle">7</text><text x="1268" y="246" class="tiny" text-anchor="middle">8</text><text x="1314" y="246" class="tiny" text-anchor="middle">9</text><text x="1360" y="246" class="tiny" text-anchor="middle">10</text><text x="1406" y="246" class="tiny" text-anchor="middle">11</text><text x="1452" y="246" class="tiny" text-anchor="middle">12</text><text x="873" y="274" class="tiny" text-anchor="middle">0</text><text x="873" y="312" class="tiny" text-anchor="middle">1</text><text x="873" y="350" class="tiny" text-anchor="middle">2</text><text x="873" y="388" class="tiny" text-anchor="middle">3</text><text x="873" y="426" class="tiny" text-anchor="middle">4</text><text x="873" y="464" class="tiny" text-anchor="middle">5</text><text x="873" y="502" class="tiny" text-anchor="middle">6</text><text x="873" y="540" class="tiny" text-anchor="middle">7</text><text x="873" y="578" class="tiny" text-anchor="middle">8</text><text x="873" y="616" class="tiny" text-anchor="middle">9</text><path d="M900 270 L1452 270" fill="none" stroke="#94a3b8" stroke-width="1.5"/><path d="M900 308 L1452 308" fill="none" stroke="#94a3b8" stroke-width="1.5"/><path d="M900 346 L1452 346" fill="none" stroke="#94a3b8" stroke-width="1.5"/><path d="M900 384 L1452 384" fill="none" stroke="#2563eb" stroke-width="4"/><path d="M900 422 L1452 422" fill="none" stroke="#94a3b8" stroke-width="1.5"/><path d="M900 460 L1452 460" fill="none" stroke="#94a3b8" stroke-width="1.5"/><path d="M900 498 L1452 498" fill="none" stroke="#94a3b8" stroke-width="1.5"/><path d="M900 536 L1452 536" fill="none" stroke="#94a3b8" stroke-width="1.5"/><path d="M900 574 L1452 574" fill="none" stroke="#94a3b8" stroke-width="1.5"/><path d="M900 612 L1452 612" fill="none" stroke="#94a3b8" stroke-width="1.5"/><circle cx="900" cy="270" r="9" fill="#2563eb" stroke="#64748b" stroke-width="1.5"/><circle cx="946" cy="270" r="6" fill="#fff" stroke="#64748b" stroke-width="1.5"/><circle cx="992" cy="270" r="6" fill="#fff" stroke="#64748b" stroke-width="1.5"/><circle cx="1038" cy="270" r="6" fill="#fff" stroke="#64748b" stroke-width="1.5"/><circle cx="1084" cy="270" r="6" fill="#fff" stroke="#64748b" stroke-width="1.5"/><circle cx="1130" cy="270" r="6" fill="#fff" stroke="#64748b" stroke-width="1.5"/><circle cx="1176" cy="270" r="6" fill="#fff" stroke="#64748b" stroke-width="1.5"/><circle cx="1222" cy="270" r="6" fill="#fff" stroke="#64748b" stroke-width="1.5"/><circle cx="1268" cy="270" r="6" fill="#fff" stroke="#64748b" stroke-width="1.5"/><circle cx="1314" cy="270" r="6" fill="#fff" stroke="#64748b" stroke-width="1.5"/><circle cx="1360" cy="270" r="6" fill="#fff" stroke="#64748b" stroke-width="1.5"/><circle cx="1406" cy="270" r="6" fill="#fff" stroke="#64748b" stroke-width="1.5"/><circle cx="1452" cy="270" r="6" fill="#fff" stroke="#64748b" stroke-width="1.5"/><circle cx="900" cy="308" r="9" fill="#2563eb" stroke="#64748b" stroke-width="1.5"/><circle cx="946" cy="308" r="6" fill="#fff" stroke="#64748b" stroke-width="1.5"/><circle cx="992" cy="308" r="6" fill="#fff" stroke="#64748b" stroke-width="1.5"/><circle cx="1038" cy="308" r="6" fill="#fff" stroke="#64748b" stroke-width="1.5"/><circle cx="1084" cy="308" r="6" fill="#fff" stroke="#64748b" stroke-width="1.5"/><circle cx="1130" cy="308" r="6" fill="#fff" stroke="#64748b" stroke-width="1.5"/><circle cx="1176" cy="308" r="6" fill="#fff" stroke="#64748b" stroke-width="1.5"/><circle cx="1222" cy="308" r="6" fill="#fff" stroke="#64748b" stroke-width="1.5"/><circle cx="1268" cy="308" r="6" fill="#fff" stroke="#64748b" stroke-width="1.5"/><circle cx="1314" cy="308" r="6" fill="#fff" stroke="#64748b" stroke-width="1.5"/><circle cx="1360" cy="308" r="6" fill="#fff" stroke="#64748b" stroke-width="1.5"/><circle cx="1406" cy="308" r="6" fill="#fff" stroke="#64748b" stroke-width="1.5"/><circle cx="1452" cy="308" r="6" fill="#fff" stroke="#64748b" stroke-width="1.5"/><circle cx="900" cy="346" r="9" fill="#2563eb" stroke="#64748b" stroke-width="1.5"/><circle cx="946" cy="346" r="6" fill="#fff" stroke="#64748b" stroke-width="1.5"/><circle cx="992" cy="346" r="6" fill="#fff" stroke="#64748b" stroke-width="1.5"/><circle cx="1038" cy="346" r="6" fill="#fff" stroke="#64748b" stroke-width="1.5"/><circle cx="1084" cy="346" r="6" fill="#fff" stroke="#64748b" stroke-width="1.5"/><circle cx="1130" cy="346" r="6" fill="#fff" stroke="#64748b" stroke-width="1.5"/><circle cx="1176" cy="346" r="6" fill="#fff" stroke="#64748b" stroke-width="1.5"/><circle cx="1222" cy="346" r="6" fill="#fff" stroke="#64748b" stroke-width="1.5"/><circle cx="1268" cy="346" r="6" fill="#fff" stroke="#64748b" stroke-width="1.5"/><circle cx="1314" cy="346" r="6" fill="#fff" stroke="#64748b" stroke-width="1.5"/><circle cx="1360" cy="346" r="6" fill="#fff" stroke="#64748b" stroke-width="1.5"/><circle cx="1406" cy="346" r="6" fill="#fff" stroke="#64748b" stroke-width="1.5"/><circle cx="1452" cy="346" r="6" fill="#fff" stroke="#64748b" stroke-width="1.5"/><circle cx="900" cy="384" r="9" fill="#2563eb" stroke="#2563eb" stroke-width="1.5"/><circle cx="946" cy="384" r="6" fill="#dcfce7" stroke="#2563eb" stroke-width="1.5"/><circle cx="992" cy="384" r="6" fill="#dcfce7" stroke="#2563eb" stroke-width="1.5"/><circle cx="1038" cy="384" r="6" fill="#dcfce7" stroke="#2563eb" stroke-width="1.5"/><circle cx="1084" cy="384" r="6" fill="#dcfce7" stroke="#2563eb" stroke-width="1.5"/><circle cx="1130" cy="384" r="6" fill="#dcfce7" stroke="#2563eb" stroke-width="1.5"/><circle cx="1176" cy="384" r="6" fill="#dcfce7" stroke="#2563eb" stroke-width="1.5"/><circle cx="1222" cy="384" r="6" fill="#dcfce7" stroke="#2563eb" stroke-width="1.5"/><circle cx="1268" cy="384" r="6" fill="#dcfce7" stroke="#2563eb" stroke-width="1.5"/><circle cx="1314" cy="384" r="6" fill="#dcfce7" stroke="#2563eb" stroke-width="1.5"/><circle cx="1360" cy="384" r="6" fill="#dcfce7" stroke="#2563eb" stroke-width="1.5"/><circle cx="1406" cy="384" r="6" fill="#dcfce7" stroke="#2563eb" stroke-width="1.5"/><circle cx="1452" cy="384" r="6" fill="#dcfce7" stroke="#2563eb" stroke-width="1.5"/><circle cx="900" cy="422" r="9" fill="#2563eb" stroke="#64748b" stroke-width="1.5"/><circle cx="946" cy="422" r="6" fill="#fff" stroke="#64748b" stroke-width="1.5"/><circle cx="992" cy="422" r="6" fill="#fff" stroke="#64748b" stroke-width="1.5"/><circle cx="1038" cy="422" r="6" fill="#fff" stroke="#64748b" stroke-width="1.5"/><circle cx="1084" cy="422" r="6" fill="#fff" stroke="#64748b" stroke-width="1.5"/><circle cx="1130" cy="422" r="6" fill="#fff" stroke="#64748b" stroke-width="1.5"/><circle cx="1176" cy="422" r="6" fill="#fff" stroke="#64748b" stroke-width="1.5"/><circle cx="1222" cy="422" r="6" fill="#fff" stroke="#64748b" stroke-width="1.5"/><circle cx="1268" cy="422" r="6" fill="#fff" stroke="#64748b" stroke-width="1.5"/><circle cx="1314" cy="422" r="6" fill="#fff" stroke="#64748b" stroke-width="1.5"/><circle cx="1360" cy="422" r="6" fill="#fff" stroke="#64748b" stroke-width="1.5"/><circle cx="1406" cy="422" r="6" fill="#fff" stroke="#64748b" stroke-width="1.5"/><circle cx="1452" cy="422" r="6" fill="#fff" stroke="#64748b" stroke-width="1.5"/><circle cx="900" cy="460" r="9" fill="#2563eb" stroke="#64748b" stroke-width="1.5"/><circle cx="946" cy="460" r="6" fill="#fff" stroke="#64748b" stroke-width="1.5"/><circle cx="992" cy="460" r="6" fill="#fff" stroke="#64748b" stroke-width="1.5"/><circle cx="1038" cy="460" r="6" fill="#fff" stroke="#64748b" stroke-width="1.5"/><circle cx="1084" cy="460" r="6" fill="#fff" stroke="#64748b" stroke-width="1.5"/><circle cx="1130" cy="460" r="6" fill="#fff" stroke="#64748b" stroke-width="1.5"/><circle cx="1176" cy="460" r="6" fill="#fff" stroke="#64748b" stroke-width="1.5"/><circle cx="1222" cy="460" r="6" fill="#fff" stroke="#64748b" stroke-width="1.5"/><circle cx="1268" cy="460" r="6" fill="#fff" stroke="#64748b" stroke-width="1.5"/><circle cx="1314" cy="460" r="6" fill="#fff" stroke="#64748b" stroke-width="1.5"/><circle cx="1360" cy="460" r="6" fill="#fff" stroke="#64748b" stroke-width="1.5"/><circle cx="1406" cy="460" r="6" fill="#fff" stroke="#64748b" stroke-width="1.5"/><circle cx="1452" cy="460" r="6" fill="#fff" stroke="#64748b" stroke-width="1.5"/><circle cx="900" cy="498" r="9" fill="#2563eb" stroke="#64748b" stroke-width="1.5"/><circle cx="946" cy="498" r="6" fill="#fff" stroke="#64748b" stroke-width="1.5"/><circle cx="992" cy="498" r="6" fill="#fff" stroke="#64748b" stroke-width="1.5"/><circle cx="1038" cy="498" r="6" fill="#fff" stroke="#64748b" stroke-width="1.5"/><circle cx="1084" cy="498" r="6" fill="#fff" stroke="#64748b" stroke-width="1.5"/><circle cx="1130" cy="498" r="6" fill="#fff" stroke="#64748b" stroke-width="1.5"/><circle cx="1176" cy="498" r="6" fill="#fff" stroke="#64748b" stroke-width="1.5"/><circle cx="1222" cy="498" r="6" fill="#fff" stroke="#64748b" stroke-width="1.5"/><circle cx="1268" cy="498" r="6" fill="#fff" stroke="#64748b" stroke-width="1.5"/><circle cx="1314" cy="498" r="6" fill="#fff" stroke="#64748b" stroke-width="1.5"/><circle cx="1360" cy="498" r="6" fill="#fff" stroke="#64748b" stroke-width="1.5"/><circle cx="1406" cy="498" r="6" fill="#fff" stroke="#64748b" stroke-width="1.5"/><circle cx="1452" cy="498" r="6" fill="#fff" stroke="#64748b" stroke-width="1.5"/><circle cx="900" cy="536" r="9" fill="#2563eb" stroke="#64748b" stroke-width="1.5"/><circle cx="946" cy="536" r="6" fill="#fff" stroke="#64748b" stroke-width="1.5"/><circle cx="992" cy="536" r="6" fill="#fff" stroke="#64748b" stroke-width="1.5"/><circle cx="1038" cy="536" r="6" fill="#fff" stroke="#64748b" stroke-width="1.5"/><circle cx="1084" cy="536" r="6" fill="#fff" stroke="#64748b" stroke-width="1.5"/><circle cx="1130" cy="536" r="6" fill="#fff" stroke="#64748b" stroke-width="1.5"/><circle cx="1176" cy="536" r="6" fill="#fff" stroke="#64748b" stroke-width="1.5"/><circle cx="1222" cy="536" r="6" fill="#fff" stroke="#64748b" stroke-width="1.5"/><circle cx="1268" cy="536" r="6" fill="#fff" stroke="#64748b" stroke-width="1.5"/><circle cx="1314" cy="536" r="6" fill="#fff" stroke="#64748b" stroke-width="1.5"/><circle cx="1360" cy="536" r="6" fill="#fff" stroke="#64748b" stroke-width="1.5"/><circle cx="1406" cy="536" r="6" fill="#fff" stroke="#64748b" stroke-width="1.5"/><circle cx="1452" cy="536" r="6" fill="#fff" stroke="#64748b" stroke-width="1.5"/><circle cx="900" cy="574" r="9" fill="#2563eb" stroke="#64748b" stroke-width="1.5"/><circle cx="946" cy="574" r="6" fill="#fff" stroke="#64748b" stroke-width="1.5"/><circle cx="992" cy="574" r="6" fill="#fff" stroke="#64748b" stroke-width="1.5"/><circle cx="1038" cy="574" r="6" fill="#fff" stroke="#64748b" stroke-width="1.5"/><circle cx="1084" cy="574" r="6" fill="#fff" stroke="#64748b" stroke-width="1.5"/><circle cx="1130" cy="574" r="6" fill="#fff" stroke="#64748b" stroke-width="1.5"/><circle cx="1176" cy="574" r="6" fill="#fff" stroke="#64748b" stroke-width="1.5"/><circle cx="1222" cy="574" r="6" fill="#fff" stroke="#64748b" stroke-width="1.5"/><circle cx="1268" cy="574" r="6" fill="#fff" stroke="#64748b" stroke-width="1.5"/><circle cx="1314" cy="574" r="6" fill="#fff" stroke="#64748b" stroke-width="1.5"/><circle cx="1360" cy="574" r="6" fill="#fff" stroke="#64748b" stroke-width="1.5"/><circle cx="1406" cy="574" r="6" fill="#fff" stroke="#64748b" stroke-width="1.5"/><circle cx="1452" cy="574" r="6" fill="#fff" stroke="#64748b" stroke-width="1.5"/><circle cx="900" cy="612" r="9" fill="#2563eb" stroke="#64748b" stroke-width="1.5"/><circle cx="946" cy="612" r="6" fill="#fff" stroke="#64748b" stroke-width="1.5"/><circle cx="992" cy="612" r="6" fill="#fff" stroke="#64748b" stroke-width="1.5"/><circle cx="1038" cy="612" r="6" fill="#fff" stroke="#64748b" stroke-width="1.5"/><circle cx="1084" cy="612" r="6" fill="#fff" stroke="#64748b" stroke-width="1.5"/><circle cx="1130" cy="612" r="6" fill="#fff" stroke="#64748b" stroke-width="1.5"/><circle cx="1176" cy="612" r="6" fill="#fff" stroke="#64748b" stroke-width="1.5"/><circle cx="1222" cy="612" r="6" fill="#fff" stroke="#64748b" stroke-width="1.5"/><circle cx="1268" cy="612" r="6" fill="#fff" stroke="#64748b" stroke-width="1.5"/><circle cx="1314" cy="612" r="6" fill="#fff" stroke="#64748b" stroke-width="1.5"/><circle cx="1360" cy="612" r="6" fill="#fff" stroke="#64748b" stroke-width="1.5"/><circle cx="1406" cy="612" r="6" fill="#fff" stroke="#64748b" stroke-width="1.5"/><circle cx="1452" cy="612" r="6" fill="#fff" stroke="#64748b" stroke-width="1.5"/><text x="845" y="655" class="label">Highlighted pipe: (0,3) sends to twelve receivers.</text>
<text x="845" y="681" class="small">One hardware NoC multicast per operand block, not sequential forwarding.</text>
<text x="845" y="706" class="tiny">x: M-worker coordinate (0…12); y: N-worker coordinate (0…9)</text><text x="40" y="767" class="label">Every worker combines its activation and weight blocks in L1, initializes the accumulator from bias, performs matmul and writes its assigned output blocks to DRAM.</text>
<text x="40" y="799" class="small">Blue filled nodes read operands from DRAM; other nodes receive into L1 DFBs. Lines show multicast membership, not chains of intermediate copies.</text>
<text x="40" y="827" class="small">The two diagrams show the same 130-worker grid. Activation and weight transfers run on separate data-movement kernels while compute executes.</text>
<text x="40" y="865" class="tiny">Source: examples/all_gather_minimal_matmul/replicated/operation.py · activation_rows and weight_columns · worker-grid coordinates, not virtual NoC addresses</text>
</svg>
